<?xml version="1.0" encoding="utf-8" ?>
<svg xmlns="http://www.w3.org/2000/svg" xmlns:ev="http://www.w3.org/2001/xml-events" xmlns:xlink="http://www.w3.org/1999/xlink" baseProfile="tiny" height="1451px" version="1.2" viewBox="0 170 1200 850" width="2048px">
  <title>GRILLE PARTY</title>
  <defs/>
  <g transform="translate(180,250) rotate(-32)">
    <rect fill="#7B49FF" height="54" rx="7" ry="7" width="38" x="-19.0" y="-27.0"/>
  </g>
  <g transform="translate(360,245) rotate(-20)">
    <rect fill="#FF4DB8" height="38" rx="7" ry="7" width="34" x="-17.0" y="-19.0"/>
  </g>
  <g transform="translate(495,220) rotate(35)">
    <rect fill="#39E5B7" height="38" rx="7" ry="7" width="58" x="-29.0" y="-19.0"/>
  </g>
  <g transform="translate(912,302) rotate(14)">
    <rect fill="#FFD94A" height="42" rx="7" ry="7" width="28" x="-14.0" y="-21.0"/>
  </g>
  <g transform="translate(1090,312) rotate(-35)">
    <rect fill="#7B49FF" height="48" rx="7" ry="7" width="38" x="-19.0" y="-24.0"/>
  </g>
  <g transform="translate(812,308) rotate(0)">
    <rect fill="#7B49FF" height="34" rx="7" ry="7" width="34" x="-17.0" y="-17.0"/>
  </g>
  <g transform="translate(86,880) rotate(-22)">
    <rect fill="#FFD94A" height="42" rx="7" ry="7" width="28" x="-14.0" y="-21.0"/>
  </g>
  <g transform="translate(340,955) rotate(45)">
    <rect fill="#FF4DB8" height="38" rx="7" ry="7" width="35" x="-17.5" y="-19.0"/>
  </g>
  <g transform="translate(780,975) rotate(35)">
    <rect fill="#7B49FF" height="36" rx="7" ry="7" width="36" x="-18.0" y="-18.0"/>
  </g>
  <g transform="translate(930,960) rotate(32)">
    <rect fill="#39E5B7" height="34" rx="7" ry="7" width="42" x="-21.0" y="-17.0"/>
  </g>
  <g transform="translate(1085,910) rotate(32)">
    <rect fill="#FF4DB8" height="42" rx="7" ry="7" width="36" x="-18.0" y="-21.0"/>
  </g>
  <polygon fill="#FFF9F2" points="895.0,194.0 904.1924,238.8076 949.0,248.0 904.1924,257.1924 895.0,302.0 885.8076,257.1924 841.0,248.0 885.8076,238.8076"/>
  <circle cx="790" cy="300" fill="#7B49FF" r="18"/>
  <circle cx="1010" cy="238" fill="#FFD94A" r="9"/>
  <circle cx="246" cy="292" fill="#FF4DB8" r="7"/>
  <ellipse cx="600" cy="875" fill="#7B49FF" opacity="0.85" rx="460" ry="32"/>
  <path d="M 48 668 Q 22 719 54 772" fill="none" stroke="#28104B" stroke-linecap="round" stroke-width="12"/>
  <path d="M 78 665 Q 52 720 88 773" fill="none" stroke="#28104B" stroke-linecap="round" stroke-width="12"/>
  <path d="M 1122 700 Q 1160 746 1128 800" fill="none" stroke="#28104B" stroke-linecap="round" stroke-width="12"/>
  <path d="M 1155 704 Q 1190 749 1158 798" fill="none" stroke="#28104B" stroke-linecap="round" stroke-width="12"/>
  <path d="M 590 270 Q 655 275 682 336" fill="none" stroke="#28104B" stroke-linecap="round" stroke-width="12"/>
  <path d="M 630 236 Q 705 255 730 320" fill="none" stroke="#28104B" stroke-linecap="round" stroke-width="12"/>
  <g transform="translate(170,500) rotate(-9)">
    <rect fill="#7B49FF" height="185" rx="32" ry="32" stroke="#28104B" stroke-width="14" width="190" x="-93.0" y="-64.5"/>
    <rect fill="#FF8C28" height="22" opacity="0.95" rx="13" ry="13" width="156" x="-78.0" y="72.5"/>
    <rect fill="#FFD94A" height="185" rx="32" ry="32" stroke="#28104B" stroke-width="14" width="190" x="-95.0" y="-92.5"/>
    <path d="M -65.0 -57.5 Q -48.0 -76.5 -7.0 -71.5" fill="none" stroke="#FFF9F2" stroke-linecap="round" stroke-width="10"/>
    <path d="M -76.0 -31.5 Q -73.0 -60.5 -40.0 -71.5" fill="none" stroke="#39E5B7" stroke-linecap="round" stroke-width="8"/>
    <path d="M 42.88 46.10 Q 34.23 50.31 24.93 52.42 Q 15.62 54.52 5.71 54.52 Q -16.70 54.52 -29.79 41.99 Q -42.88 29.46 -42.88 8.03 Q -42.88 -13.65 -29.56 -26.08 Q -16.22 -38.52 6.98 -38.52 Q 15.91 -38.52 24.10 -36.83 Q 32.31 -35.16 39.57 -31.85 L 39.57 -13.30 Q 32.08 -17.55 24.66 -19.65 Q 17.24 -21.76 9.78 -21.76 Q -4.02 -21.76 -11.49 -14.03 Q -18.97 -6.33 -18.97 8.03 Q -18.97 22.25 -11.76 30.02 Q -4.55 37.76 8.71 37.76 Q 12.32 37.76 15.41 37.32 Q 18.51 36.86 20.97 35.90 L 20.97 18.48 L 6.84 18.48 L 6.84 2.97 L 42.88 2.97 L 42.88 46.10 Z" fill="#28104B"/>
  </g>
  <g transform="translate(333,504) rotate(3)">
    <rect fill="#7B49FF" height="165" rx="32" ry="32" stroke="#28104B" stroke-width="14" width="165" x="-80.5" y="-54.5"/>
    <rect fill="#FF8C28" height="22" opacity="0.95" rx="13" ry="13" width="131" x="-65.5" y="62.5"/>
    <rect fill="#FFD94A" height="165" rx="32" ry="32" stroke="#28104B" stroke-width="14" width="165" x="-82.5" y="-82.5"/>
    <path d="M -52.5 -47.5 Q -35.5 -66.5 5.5 -61.5" fill="none" stroke="#FFF9F2" stroke-linecap="round" stroke-width="10"/>
    <path d="M -6.95 3.38 Q -0.33 3.38 2.54 0.93 Q 5.41 -1.54 5.41 -7.17 Q 5.41 -12.76 2.54 -15.15 Q -0.33 -17.57 -6.95 -17.57 L -15.80 -17.57 L -15.80 3.38 L -6.95 3.38 Z M -15.80 17.92 L -15.80 48.83 L -36.86 48.83 L -36.86 -32.83 L -4.71 -32.83 Q 11.43 -32.83 18.94 -27.40 Q 26.46 -22.00 26.46 -10.29 Q 26.46 -2.20 22.54 2.99 Q 18.64 8.19 10.76 10.66 Q 15.08 11.64 18.50 15.12 Q 21.93 18.59 25.43 25.64 L 36.86 48.83 L 14.44 48.83 L 4.48 28.54 Q 1.47 22.42 -1.63 20.18 Q -4.71 17.92 -9.85 17.92 L -15.80 17.92 Z" fill="#28104B"/>
  </g>
  <g transform="translate(485,486) rotate(-1)">
    <rect fill="#7B49FF" height="190" rx="32" ry="32" stroke="#28104B" stroke-width="14" width="145" x="-70.5" y="-67.0"/>
    <rect fill="#FF8C28" height="22" opacity="0.95" rx="13" ry="13" width="111" x="-55.5" y="75.0"/>
    <rect fill="#FFD94A" height="190" rx="32" ry="32" stroke="#28104B" stroke-width="14" width="145" x="-72.5" y="-95.0"/>
    <path d="M -42.5 -60.0 Q -25.5 -79.0 15.5 -74.0" fill="none" stroke="#FFF9F2" stroke-linecap="round" stroke-width="10"/>
    <path d="M -12.03 -38.66 L 12.03 -38.66 L 12.03 54.66 L -12.03 54.66 L -12.03 -38.66 Z" fill="#28104B"/>
  </g>
  <g transform="translate(638,505) rotate(6)">
    <rect fill="#7B49FF" height="166" rx="32" ry="32" stroke="#28104B" stroke-width="14" width="157" x="-76.5" y="-55.0"/>
    <rect fill="#FF8C28" height="22" opacity="0.95" rx="13" ry="13" width="123" x="-61.5" y="63.0"/>
    <rect fill="#FFD94A" height="166" rx="32" ry="32" stroke="#28104B" stroke-width="14" width="157" x="-78.5" y="-83.0"/>
    <path d="M -48.5 -48.0 Q -31.5 -67.0 9.5 -62.0" fill="none" stroke="#FFF9F2" stroke-linecap="round" stroke-width="10"/>
    <path d="M -30.04 -34.29 L -8.24 -34.29 L -8.24 33.81 L 30.04 33.81 L 30.04 50.29 L -30.04 50.29 L -30.04 -34.29 Z" fill="#28104B"/>
  </g>
  <g transform="translate(790,515) rotate(7)">
    <rect fill="#7B49FF" height="166" rx="32" ry="32" stroke="#28104B" stroke-width="14" width="157" x="-76.5" y="-55.0"/>
    <rect fill="#FF8C28" height="22" opacity="0.95" rx="13" ry="13" width="123" x="-61.5" y="63.0"/>
    <rect fill="#FFD94A" height="166" rx="32" ry="32" stroke="#28104B" stroke-width="14" width="157" x="-78.5" y="-83.0"/>
    <path d="M -48.5 -48.0 Q -31.5 -67.0 9.5 -62.0" fill="none" stroke="#FFF9F2" stroke-linecap="round" stroke-width="10"/>
    <path d="M -30.04 -34.29 L -8.24 -34.29 L -8.24 33.81 L 30.04 33.81 L 30.04 50.29 L -30.04 50.29 L -30.04 -34.29 Z" fill="#28104B"/>
  </g>
  <g transform="translate(950,530) rotate(9)">
    <rect fill="#7B49FF" height="166" rx="32" ry="32" stroke="#28104B" stroke-width="14" width="170" x="-83.0" y="-55.0"/>
    <rect fill="#FF8C28" height="22" opacity="0.95" rx="13" ry="13" width="136" x="-68.0" y="63.0"/>
    <rect fill="#FFD94A" height="166" rx="32" ry="32" stroke="#28104B" stroke-width="14" width="170" x="-85.0" y="-83.0"/>
    <path d="M -55.0 -48.0 Q -38.0 -67.0 3.0 -62.0" fill="none" stroke="#FFF9F2" stroke-linecap="round" stroke-width="10"/>
    <path d="M -29.52 -33.56 L 28.30 -33.56 L 28.30 -17.35 L -8.10 -17.35 L -8.10 -1.89 L 26.14 -1.89 L 26.14 14.32 L -8.10 14.32 L -8.10 33.36 L 29.52 33.36 L 29.52 49.56 L -29.52 49.56 L -29.52 -33.56 Z" fill="#28104B"/>
  </g>
  <g transform="translate(238,730) rotate(-10)">
    <rect fill="#7B49FF" height="178" rx="32" ry="32" stroke="#28104B" stroke-width="14" width="172" x="-84.0" y="-61.0"/>
    <rect fill="#FF4DB8" height="22" opacity="0.95" rx="13" ry="13" width="138" x="-69.0" y="69.0"/>
    <rect fill="#FF4DB8" height="178" rx="32" ry="32" stroke="#28104B" stroke-width="14" width="172" x="-86.0" y="-89.0"/>
    <path d="M -56.0 -54.0 Q -39.0 -73.0 2.0 -68.0" fill="none" stroke="#FFF9F2" stroke-linecap="round" stroke-width="10"/>
    <path d="M -67.0 -28.0 Q -64.0 -57.0 -31.0 -68.0" fill="none" stroke="#39E5B7" stroke-linecap="round" stroke-width="8"/>
    <path d="M -34.50 -33.92 L 1.37 -33.92 Q 17.38 -33.92 25.93 -26.81 Q 34.50 -19.71 34.50 -6.57 Q 34.50 6.63 25.93 13.73 Q 17.38 20.83 1.37 20.83 L -12.88 20.83 L -12.88 49.92 L -34.50 49.92 L -34.50 -33.92 Z M -12.88 -18.25 L -12.88 5.16 L -0.93 5.16 Q 5.35 5.16 8.79 2.11 Q 12.22 -0.95 12.22 -6.57 Q 12.22 -12.18 8.79 -15.22 Q 5.35 -18.25 -0.93 -18.25 L -12.88 -18.25 Z" fill="#28104B"/>
  </g>
  <g transform="translate(404,725) rotate(-3)">
    <rect fill="#7B49FF" height="165" rx="32" ry="32" stroke="#28104B" stroke-width="14" width="166" x="-81.0" y="-54.5"/>
    <rect fill="#FF8C28" height="22" opacity="0.95" rx="13" ry="13" width="132" x="-66.0" y="62.5"/>
    <rect fill="#FFD94A" height="165" rx="32" ry="32" stroke="#28104B" stroke-width="14" width="166" x="-83.0" y="-82.5"/>
    <path d="M -53.0 -47.5 Q -36.0 -66.5 5.0 -61.5" fill="none" stroke="#FFF9F2" stroke-linecap="round" stroke-width="10"/>
    <path d="M 16.49 33.95 L -16.42 33.95 L -21.62 48.83 L -42.80 48.83 L -12.56 -32.83 L 12.56 -32.83 L 42.80 48.83 L 21.64 48.83 L 16.49 33.95 Z M -11.17 18.80 L 11.19 18.80 L 0.03 -13.68 L -11.17 18.80 Z" fill="#28104B"/>
  </g>
  <g transform="translate(563,715) rotate(1)">
    <rect fill="#7B49FF" height="166" rx="32" ry="32" stroke="#28104B" stroke-width="14" width="166" x="-81.0" y="-55.0"/>
    <rect fill="#FF8C28" height="22" opacity="0.95" rx="13" ry="13" width="132" x="-66.0" y="63.0"/>
    <rect fill="#FFD94A" height="166" rx="32" ry="32" stroke="#28104B" stroke-width="14" width="166" x="-83.0" y="-83.0"/>
    <path d="M -53.0 -48.0 Q -36.0 -67.0 5.0 -62.0" fill="none" stroke="#FFF9F2" stroke-linecap="round" stroke-width="10"/>
    <path d="M -6.82 3.46 Q -0.33 3.46 2.49 1.06 Q 5.31 -1.37 5.31 -6.90 Q 5.31 -12.38 2.49 -14.74 Q -0.33 -17.11 -6.82 -17.11 L -15.52 -17.11 L -15.52 3.46 L -6.82 3.46 Z M -15.52 17.75 L -15.52 48.10 L -36.20 48.10 L -36.20 -32.10 L -4.62 -32.10 Q 11.22 -32.10 18.60 -26.77 Q 25.99 -21.46 25.99 -9.96 Q 25.99 -2.02 22.14 3.08 Q 18.30 8.19 10.57 10.61 Q 14.82 11.58 18.17 15.00 Q 21.54 18.40 24.97 25.32 L 36.20 48.10 L 14.18 48.10 L 4.40 28.18 Q 1.44 22.16 -1.60 19.96 Q -4.62 17.75 -9.68 17.75 L -15.52 17.75 Z" fill="#28104B"/>
  </g>
  <g transform="translate(724,725) rotate(5)">
    <rect fill="#7B49FF" height="162" rx="32" ry="32" stroke="#28104B" stroke-width="14" width="154" x="-75.0" y="-53.0"/>
    <rect fill="#FF8C28" height="22" opacity="0.95" rx="13" ry="13" width="120" x="-60.0" y="61.0"/>
    <rect fill="#FFD94A" height="162" rx="32" ry="32" stroke="#28104B" stroke-width="14" width="154" x="-77.0" y="-81.0"/>
    <path d="M -47.0 -46.0 Q -30.0 -65.0 11.0 -60.0" fill="none" stroke="#FFF9F2" stroke-linecap="round" stroke-width="10"/>
    <path d="M -37.96 -33.19 L 37.96 -33.19 L 37.96 -17.12 L 10.65 -17.12 L 10.65 49.19 L -10.59 49.19 L -10.59 -17.12 L -37.96 -17.12 L -37.96 -33.19 Z" fill="#28104B"/>
  </g>
  <g transform="translate(880,730) rotate(8)">
    <rect fill="#7B49FF" height="178" rx="32" ry="32" stroke="#28104B" stroke-width="14" width="180" x="-88.0" y="-61.0"/>
    <rect fill="#7B49FF" height="22" opacity="0.95" rx="13" ry="13" width="146" x="-73.0" y="69.0"/>
    <rect fill="#39E5B7" height="178" rx="32" ry="32" stroke="#28104B" stroke-width="14" width="180" x="-90.0" y="-89.0"/>
    <path d="M -60.0 -54.0 Q -43.0 -73.0 -2.0 -68.0" fill="none" stroke="#FFF9F2" stroke-linecap="round" stroke-width="10"/>
    <path d="M -71.0 -28.0 Q -68.0 -57.0 -35.0 -68.0" fill="none" stroke="#FFF9F2" stroke-linecap="round" stroke-width="8"/>
    <path d="M -43.14 -34.29 L -19.29 -34.29 L -0.02 -4.14 L 19.23 -34.29 L 43.14 -34.29 L 10.91 14.65 L 10.91 50.29 L -10.89 50.29 L -10.89 14.65 L -43.14 -34.29 Z" fill="#28104B"/>
  </g>
  <g transform="translate(123,914) rotate(-22)">
    <rect fill="#FFD94A" height="22" rx="5" ry="5" width="22" x="-11.0" y="-11.0"/>
  </g>
  <g transform="translate(335,990) rotate(45)">
    <rect fill="#FF4DB8" height="30" rx="5" ry="5" width="30" x="-15.0" y="-15.0"/>
  </g>
  <g transform="translate(780,1010) rotate(36)">
    <rect fill="#7B49FF" height="28" rx="5" ry="5" width="28" x="-14.0" y="-14.0"/>
  </g>
  <g transform="translate(940,990) rotate(32)">
    <rect fill="#39E5B7" height="32" rx="5" ry="5" width="32" x="-16.0" y="-16.0"/>
  </g>
  <g transform="translate(1110,936) rotate(30)">
    <rect fill="#FF4DB8" height="30" rx="5" ry="5" width="30" x="-15.0" y="-15.0"/>
  </g>
</svg>
